<svg xmlns="http://www.w3.org/2000/svg" xmlns:svg="http://www.w3.org/2000/svg" id="svg17805" width="15" height="15" version="1.1" viewBox="0 0 15 15" xml:space="preserve"><metadata id="metadata9"/><path id="path4660-7-2-3-3" d="m 7.5,0.125 c -4.059,0 -7.375,3.316 -7.375,7.375 0,4.059 3.316,7.375 7.375,7.375 4.059,0 7.375,-3.316 7.375,-7.375 0,-4.059 -3.316,-7.375 -7.375,-7.375 z m 0,1.768 c 3.104,0 5.607,2.504 5.607,5.607 0,3.103 -2.504,5.607 -5.607,5.607 -3.103,0 -5.607,-2.503 -5.607,-5.607 0,-3.104 2.503,-5.607 5.607,-5.607 z" style="fill:#565656"/><path id="rect4662-1-2-3-46" d="m 6.708,2.991 v 4.552 0.764 0.446 h 3.428 V 7.543 H 7.918 V 2.991 h -1.21 z" style="fill:#565656"/></svg>